# Blender 5.1.2
# www.blender.org
mtllib Background.mtl
o Background
v -16.118391 0.000000 9.388028
v 16.118391 0.000000 9.388028
v -16.118391 0.000000 -9.388028
v 16.118391 0.000000 -9.388028
v -16.118391 12.987504 -9.388028
v 16.118391 12.987504 -9.388028
vn -0.0000 1.0000 -0.0000
vn -0.0000 -0.0000 1.0000
vt 0.000000 0.000000
vt 0.591119 0.591119
vt 0.000000 0.591119
vt 1.000000 0.591119
vt 0.591119 -0.000000
vt 1.000000 0.000000
vt 0.591119 0.000000
vt 0.591119 0.591119
s 0
usemtl GreenPlane
f 2/1/1 3/2/1 1/3/1
f 4/4/2 5/5/2 3/6/2
f 2/1/1 4/7/1 3/2/1
f 4/4/2 6/8/2 5/5/2
