# Blender 5.1.2
# www.blender.org
mtllib CeilingLight.mtl
o CeilingLight
v 0.000000 8.128979 0.000000
v 0.723607 8.681759 0.525725
v -0.276388 8.681759 0.850649
v -0.894426 8.681763 0.000000
v -0.276388 8.681759 -0.850649
v 0.723607 8.681759 -0.525725
v -0.162456 8.278324 0.499995
v 0.425323 8.278324 0.309011
v 0.262869 8.603241 0.809012
v 0.850648 8.603243 0.000000
v 0.425323 8.278324 -0.309011
v -0.525730 8.278327 0.000000
v -0.688189 8.603243 0.499997
v -0.162456 8.278324 -0.499995
v -0.688189 8.603243 -0.499997
v 0.262869 8.603241 -0.809012
v 0.951058 9.128979 0.309013
v 0.951058 9.128979 -0.309013
v 0.000000 9.128979 1.000000
v 0.587786 9.128979 0.809017
v -0.951058 9.128979 0.309013
v -0.587786 9.128979 0.809017
v -0.587786 9.128979 -0.809017
v -0.951058 9.128979 -0.309013
v 0.587786 9.128979 -0.809017
v 0.000000 9.128979 -1.000000
vn 0.1024 -0.9435 0.3151
vn 0.7002 -0.6617 0.2680
vn -0.2680 -0.9435 0.1947
vn -0.2680 -0.9435 -0.1947
vn 0.1024 -0.9435 -0.3151
vn 0.9050 -0.3304 0.2680
vn 0.0247 -0.3304 0.9435
vn -0.8897 -0.3304 0.3151
vn -0.5746 -0.3304 -0.7488
vn 0.5346 -0.3304 -0.7779
vn 0.8026 -0.1256 0.5831
vn -0.3066 -0.1256 0.9435
vn -0.9921 -0.1256 -0.0000
vn -0.3066 -0.1256 -0.9435
vn 0.8026 -0.1256 -0.5831
vn -0.0000 1.0000 -0.0000
vn 0.3035 -0.1876 -0.9342
vn 0.0247 -0.3304 -0.9435
vn -0.7947 -0.1876 -0.5773
vn -0.8897 -0.3304 -0.3151
vn -0.7947 -0.1876 0.5773
vn -0.5746 -0.3304 0.7488
vn 0.3035 -0.1876 0.9342
vn 0.5346 -0.3304 0.7779
vn 0.9822 -0.1876 -0.0000
vn 0.9050 -0.3304 -0.2680
vn 0.4713 -0.6617 -0.5831
vn 0.1876 -0.7947 -0.5773
vn -0.0385 -0.6617 -0.7488
vn -0.4089 -0.6617 -0.6284
vn -0.4911 -0.7947 -0.3568
vn -0.7240 -0.6617 -0.1947
vn -0.7240 -0.6617 0.1947
vn -0.4911 -0.7947 0.3568
vn -0.4089 -0.6617 0.6284
vn 0.7002 -0.6617 -0.2680
vn 0.6071 -0.7947 -0.0000
vn 0.3313 -0.9435 -0.0000
vn -0.0385 -0.6617 0.7488
vn 0.1876 -0.7947 0.5773
vn 0.4713 -0.6617 0.5831
vt 0.636220 0.343402
vt 0.768315 0.282024
vt 0.741556 0.428890
vt 0.879486 0.207386
vt 0.768317 0.118203
vt 0.582030 0.435786
vt 0.510197 0.293180
vt 0.625329 0.198151
vt 0.884546 0.083873
vt 0.648087 0.894468
vt 0.637843 0.753453
vt 0.780599 0.836341
vt 0.388780 0.894469
vt 0.378534 0.753454
vt 0.521290 0.836341
vt 0.133387 0.767388
vt 0.141984 0.905819
vt -0.000000 0.825437
vt 0.222160 0.552384
vt 0.194162 0.642717
vt 0.084427 0.536453
vt 0.648087 0.612439
vt 0.752272 0.536454
vt 0.780599 0.670568
vt 0.388778 0.612438
vt 0.492963 0.536454
vt 0.521290 0.670567
vt 0.492964 0.970453
vt 0.032248 0.662831
vt 0.636221 0.064693
vt 0.582030 0.006895
vt 0.741559 0.000000
vt 0.097437 0.051228
vt 0.412758 0.051226
vt 0.510197 0.351114
vt 0.000001 0.962163
vt 0.133388 1.000000
vt 0.510197 0.129359
vt 0.261981 0.792891
vt 0.261981 0.929617
vt 0.261982 0.836340
vt 0.332701 0.970453
vt 0.261981 0.670567
vt 0.521290 0.836339
vt 0.521290 0.670568
vt 0.412760 0.485226
vt 0.000000 0.351114
vt 0.255099 0.536453
vt 0.097439 0.485227
vt 0.000000 0.185340
vt 0.255098 0.000000
vt 0.510197 0.185340
s 0
usemtl EmissiveLight
f 1/1/1 8/2/1 7/3/1
f 2/4/2 8/2/2 10/5/2
f 1/1/3 7/3/3 12/6/3
f 1/1/4 12/6/4 14/7/4
f 1/1/5 14/7/5 11/8/5
f 2/4/6 10/5/6 17/9/6
f 3/10/7 9/11/7 19/12/7
f 4/13/8 13/14/8 21/15/8
f 5/16/9 15/17/9 23/18/9
f 6/19/10 16/20/10 25/21/10
f 2/22/11 17/23/11 20/24/11
f 3/25/12 19/26/12 22/27/12
f 4/13/13 21/15/13 24/28/13
f 5/16/14 23/18/14 26/29/14
f 6/30/15 25/31/15 18/32/15
f 21/33/16 19/34/16 17/35/16
f 25/21/17 16/20/17 26/29/17
f 16/20/18 5/16/18 26/29/18
f 23/18/19 15/17/19 24/36/19
f 15/17/20 4/37/20 24/36/20
f 21/15/21 13/14/21 22/27/21
f 13/14/22 3/25/22 22/27/22
f 19/12/23 9/11/23 20/24/23
f 9/11/24 2/22/24 20/24/24
f 17/9/25 10/5/25 18/32/25
f 10/5/26 6/30/26 18/32/26
f 11/8/27 16/38/27 6/30/27
f 11/8/28 14/7/28 16/38/28
f 14/39/29 5/16/29 16/20/29
f 14/39/30 15/17/30 5/16/30
f 14/39/31 12/40/31 15/17/31
f 12/41/32 4/13/32 15/42/32
f 12/41/33 13/14/33 4/13/33
f 12/41/34 7/43/34 13/14/34
f 7/43/35 3/25/35 13/14/35
f 10/5/36 11/8/36 6/30/36
f 10/5/37 8/2/37 11/8/37
f 8/2/38 1/1/38 11/8/38
f 7/44/39 9/11/39 3/10/39
f 7/44/40 8/45/40 9/11/40
f 8/45/41 2/22/41 9/11/41
f 17/35/16 18/46/16 23/47/16
f 18/46/16 25/48/16 23/47/16
f 25/48/16 26/49/16 23/47/16
f 23/47/16 24/50/16 21/33/16
f 21/33/16 22/51/16 19/34/16
f 19/34/16 20/52/16 17/35/16
f 23/47/16 21/33/16 17/35/16
