# Blender 5.1.1
# www.blender.org
mtllib Lampada.mtl
o Sphere.002
v 0.146447 2.296331 -0.353553
v 0.000000 0.382683 -0.923880
v 0.000000 0.000000 -1.000000
v 0.000000 -0.382683 -0.923880
v 0.000000 -0.923880 -0.382683
v 0.000000 -1.000000 0.000000
v 0.146447 1.519226 -0.353553
v 0.270598 0.707107 -0.653281
v 0.353553 0.382683 -0.853553
v 0.382683 0.000000 -0.923880
v 0.353553 -0.382683 -0.853553
v 0.270598 -0.707107 -0.653281
v 0.146447 -0.923880 -0.353553
v 0.270598 1.519226 -0.270598
v 0.500000 0.707107 -0.500000
v 0.653282 0.382683 -0.653281
v 0.707107 0.000000 -0.707107
v 0.653282 -0.382683 -0.653281
v 0.500000 -0.707107 -0.500000
v 0.270598 -0.923880 -0.270598
v 0.353553 1.519226 -0.146447
v 0.653281 0.707107 -0.270598
v 0.853553 0.382683 -0.353553
v 0.923880 0.000000 -0.382683
v 0.853553 -0.382683 -0.353553
v 0.653281 -0.707107 -0.270598
v 0.353553 -0.923880 -0.146447
v 0.382683 1.519226 0.000000
v 0.707107 0.707107 0.000000
v 0.923880 0.382683 0.000000
v 1.000000 0.000000 0.000000
v 0.923880 -0.382683 0.000000
v 0.707107 -0.707107 0.000000
v 0.382683 -0.923880 0.000000
v 0.353553 1.519226 0.146447
v 0.653281 0.707107 0.270598
v 0.853553 0.382683 0.353554
v 0.923879 0.000000 0.382684
v 0.853553 -0.382683 0.353554
v 0.653281 -0.707107 0.270598
v 0.353553 -0.923880 0.146447
v 0.270598 1.519226 0.270598
v 0.500000 0.707107 0.500000
v 0.653281 0.382683 0.653282
v 0.707107 0.000000 0.707107
v 0.653281 -0.382683 0.653282
v 0.500000 -0.707107 0.500000
v 0.270598 -0.923880 0.270598
v 0.146447 1.519226 0.353553
v 0.270598 0.707107 0.653281
v 0.353553 0.382683 0.853553
v 0.382683 0.000000 0.923880
v 0.353553 -0.382683 0.853553
v 0.270598 -0.707107 0.653281
v 0.146447 -0.923880 0.353553
v -0.000000 1.519226 0.382683
v -0.000000 0.707107 0.707107
v -0.000000 0.382683 0.923879
v -0.000000 0.000000 1.000000
v -0.000000 -0.382683 0.923879
v -0.000000 -0.707107 0.707107
v -0.000000 -0.923880 0.382683
v -0.146447 1.519226 0.353553
v -0.270598 0.707107 0.653281
v -0.353554 0.382683 0.853553
v -0.382684 0.000000 0.923879
v -0.353554 -0.382683 0.853553
v -0.270598 -0.707107 0.653281
v -0.146447 -0.923880 0.353553
v -0.270598 1.519226 0.270598
v -0.500000 0.707107 0.500000
v -0.653282 0.382683 0.653281
v -0.707107 0.000000 0.707106
v -0.653282 -0.382683 0.653281
v -0.500000 -0.707107 0.500000
v -0.270598 -0.923880 0.270598
v -0.353553 1.519226 0.146446
v -0.653281 0.707107 0.270598
v -0.853553 0.382683 0.353553
v -0.923880 0.000000 0.382683
v -0.853553 -0.382683 0.353553
v -0.653281 -0.707107 0.270598
v -0.353553 -0.923880 0.146446
v -0.382683 1.519226 -0.000000
v -0.707107 0.707107 -0.000000
v -0.923879 0.382683 -0.000000
v -1.000000 0.000000 -0.000001
v -0.923879 -0.382683 -0.000000
v -0.707107 -0.707107 -0.000000
v -0.382683 -0.923880 -0.000000
v -0.353553 1.519226 -0.146447
v -0.653281 0.707107 -0.270598
v -0.853553 0.382683 -0.353554
v -0.923879 0.000000 -0.382684
v -0.853553 -0.382683 -0.353554
v -0.653281 -0.707107 -0.270598
v -0.353553 -0.923880 -0.146447
v -0.270598 1.519226 -0.270598
v -0.500000 0.707107 -0.500000
v -0.653281 0.382683 -0.653282
v -0.707106 0.000000 -0.707107
v -0.653281 -0.382683 -0.653282
v -0.500000 -0.707107 -0.500000
v -0.270598 -0.923880 -0.270598
v -0.146446 1.519226 -0.353554
v -0.270598 0.707107 -0.653281
v -0.353553 0.382683 -0.853553
v -0.382683 0.000000 -0.923880
v -0.353553 -0.382683 -0.853553
v -0.270598 -0.707107 -0.653281
v -0.146446 -0.923880 -0.353554
v 0.000000 1.519226 -0.382683
v 0.000000 0.707107 -0.707107
v 0.000000 -0.707107 -0.707107
v 0.270598 2.296331 -0.270598
v 0.353553 2.296331 -0.146447
v 0.382683 2.296331 0.000000
v 0.353553 2.296331 0.146447
v 0.270598 2.296331 0.270598
v 0.146447 2.296331 0.353553
v -0.000000 2.296331 0.382683
v -0.146447 2.296331 0.353553
v -0.270598 2.296331 0.270598
v -0.353553 2.296331 0.146446
v -0.382683 2.296331 -0.000000
v -0.353553 2.296331 -0.146447
v -0.270598 2.296331 -0.270598
v -0.146446 2.296331 -0.353554
v 0.000000 2.296331 -0.382683
v -0.012429 1.853073 -2.031859
v -0.012429 3.853073 -1.000000
v 0.765130 1.853073 -1.877193
v 0.370255 3.853073 -0.923880
v 1.424312 1.853073 -1.436741
v 0.694678 3.853073 -0.707107
v 1.864764 1.853073 -0.777559
v 0.911451 3.853073 -0.382683
v 2.019430 1.853073 0.000000
v 0.987571 3.853073 0.000000
v 1.864764 1.853073 0.777559
v 0.911451 3.853073 0.382683
v 1.424312 1.853073 1.436741
v 0.694678 3.853073 0.707107
v 0.765130 1.853073 1.877193
v 0.370255 3.853073 0.923880
v -0.012429 1.853073 2.031859
v -0.012429 3.853073 1.000000
v -0.789987 1.853073 1.877193
v -0.395112 3.853073 0.923880
v -1.449170 1.853073 1.436741
v -0.719536 3.853073 0.707107
v -1.889621 1.853073 0.777559
v -0.936308 3.853073 0.382683
v -2.044287 1.853073 0.000000
v -1.012429 3.853073 0.000000
v -1.889621 1.853073 -0.777559
v -0.936308 3.853073 -0.382683
v -1.449170 1.853073 -1.436741
v -0.719536 3.853073 -0.707107
v -0.789987 1.853073 -1.877193
v -0.395112 3.853073 -0.923880
v -0.347517 3.853073 -0.808975
v -0.012429 3.853073 -0.875629
v 0.322660 3.853073 -0.808975
v -0.821404 3.853073 0.335089
v -0.888057 3.853073 0.000000
v -0.821404 3.853073 -0.335089
v -0.347517 3.853073 0.808975
v 0.322660 3.853073 0.808975
v -0.012429 3.853073 0.875629
v 0.863200 3.853073 0.000000
v 0.796547 3.853073 0.335089
v 0.796547 3.853073 -0.335089
v -0.631592 3.853073 0.619163
v 0.606734 3.853073 -0.619163
v -0.631592 3.853073 -0.619163
v 0.606734 3.853073 0.619163
v -0.012429 1.853073 -1.779154
v 1.245623 1.853073 -1.258052
v 0.668424 1.853073 -1.643724
v 1.245623 1.853073 1.258052
v 1.766725 1.853073 0.000000
v 1.631295 1.853073 0.680853
v -1.270480 1.853073 1.258052
v -0.693281 1.853073 1.643724
v -0.012429 1.853073 1.779154
v -1.791583 1.853073 0.000000
v -1.270480 1.853073 -1.258052
v -1.656152 1.853073 -0.680853
v -0.693281 1.853073 -1.643724
v 1.631295 1.853073 -0.680853
v -1.656152 1.853073 0.680853
v 0.668424 1.853073 1.643724
v 0.000000 3.297902 0.000000
v 0.000000 3.171587 -0.304950
v 0.000000 2.866638 -0.431264
v -0.000000 2.561688 -0.234909
v -0.000000 2.295654 -0.152488
v 0.215632 3.171587 -0.215632
v 0.304950 2.866638 -0.304950
v 0.166105 2.561688 -0.166105
v 0.304950 3.171587 0.000000
v 0.431264 2.866638 0.000000
v 0.234909 2.561688 -0.000000
v 0.215632 3.171587 0.215632
v 0.304950 2.866638 0.304950
v 0.166105 2.561688 0.166105
v 0.000000 3.171587 0.304950
v 0.000000 2.866638 0.431264
v -0.000000 2.561688 0.234909
v -0.215632 3.171587 0.215632
v -0.304950 2.866638 0.304950
v -0.166105 2.561688 0.166105
v -0.304950 3.171587 0.000000
v -0.431264 2.866638 0.000000
v -0.234909 2.561688 -0.000000
v -0.215632 3.171587 -0.215632
v -0.304950 2.866638 -0.304950
v -0.166105 2.561688 -0.166105
v 0.107826 2.295654 -0.107826
v 0.152488 2.295654 -0.000000
v 0.107825 2.295654 0.107825
v -0.000000 2.295654 0.152488
v -0.107825 2.295654 0.107825
v -0.152488 2.295654 -0.000000
v -0.107825 2.295654 -0.107826
vn 0.1951 -0.0000 -0.9808
vn 0.0388 -0.9800 -0.1949
vn 0.1632 -0.5481 -0.8203
vn 0.1915 0.1915 -0.9626
vn 0.1816 0.3648 -0.9132
vn 0.1098 -0.8264 -0.5522
vn 0.1915 -0.1915 -0.9626
vn 0.1632 0.5481 -0.8203
vn 0.5453 0.1915 -0.8161
vn 0.5173 0.3648 -0.7742
vn 0.3128 -0.8264 -0.4681
vn 0.5453 -0.1915 -0.8161
vn 0.4647 0.5481 -0.6954
vn -0.5556 -0.0000 -0.8315
vn 0.1104 -0.9800 -0.1653
vn 0.4647 -0.5481 -0.6954
vn 0.4681 -0.8264 -0.3128
vn 0.8161 -0.1915 -0.5453
vn 0.6954 0.5481 -0.4647
vn 0.9808 -0.0000 0.1951
vn 0.1653 -0.9800 -0.1104
vn 0.6954 -0.5481 -0.4647
vn 0.8161 0.1915 -0.5453
vn 0.7742 0.3648 -0.5173
vn 0.8203 0.5481 -0.1632
vn -0.1951 -0.0000 0.9808
vn 0.1949 -0.9800 -0.0388
vn 0.8203 -0.5481 -0.1632
vn 0.9626 0.1915 -0.1915
vn 0.9132 0.3648 -0.1816
vn 0.5522 -0.8264 -0.1098
vn 0.9626 -0.1915 -0.1915
vn 0.1949 -0.9800 0.0388
vn 0.8203 -0.5481 0.1632
vn 0.9626 0.1915 0.1915
vn 0.9132 0.3648 0.1816
vn 0.5522 -0.8264 0.1098
vn 0.9626 -0.1915 0.1915
vn 0.8203 0.5481 0.1632
vn -0.8315 -0.0000 -0.5556
vn 0.7742 0.3648 0.5173
vn 0.4681 -0.8264 0.3128
vn 0.8161 -0.1915 0.5453
vn 0.6954 0.5481 0.4647
vn -0.5556 -0.0000 0.8315
vn 0.1653 -0.9800 0.1104
vn 0.6954 -0.5481 0.4647
vn 0.8161 0.1915 0.5453
vn 0.3128 -0.8264 0.4681
vn 0.5453 -0.1915 0.8161
vn 0.4647 0.5481 0.6954
vn 0.9808 -0.0000 -0.1951
vn 0.1104 -0.9800 0.1653
vn 0.4647 -0.5481 0.6954
vn 0.5453 0.1915 0.8161
vn 0.5173 0.3648 0.7742
vn -0.9808 -0.0000 -0.1951
vn 0.0388 -0.9800 0.1949
vn 0.1632 -0.5481 0.8203
vn 0.1915 0.1915 0.9626
vn 0.1816 0.3648 0.9132
vn 0.1098 -0.8264 0.5522
vn 0.1915 -0.1915 0.9626
vn 0.1632 0.5481 0.8203
vn -0.1632 -0.5481 0.8203
vn -0.1915 0.1915 0.9626
vn -0.1816 0.3648 0.9132
vn -0.1098 -0.8264 0.5522
vn -0.1915 -0.1915 0.9626
vn -0.1632 0.5481 0.8203
vn 0.5556 -0.0000 0.8315
vn -0.0388 -0.9800 0.1949
vn -0.3128 -0.8264 0.4681
vn -0.5453 -0.1915 0.8161
vn -0.4647 0.5481 0.6954
vn 0.8315 -0.0000 -0.5556
vn -0.1104 -0.9800 0.1653
vn -0.4647 -0.5481 0.6954
vn -0.5453 0.1915 0.8161
vn -0.5173 0.3648 0.7742
vn -0.8161 -0.1915 0.5453
vn -0.6954 0.5481 0.4647
vn 0.1951 -0.0000 0.9808
vn -0.1653 -0.9800 0.1104
vn -0.6954 -0.5481 0.4647
vn -0.8161 0.1915 0.5453
vn -0.7742 0.3648 0.5173
vn -0.4681 -0.8264 0.3128
vn -0.1949 -0.9800 0.0388
vn -0.8203 -0.5481 0.1632
vn -0.9626 0.1915 0.1915
vn -0.9132 0.3648 0.1816
vn -0.5522 -0.8264 0.1098
vn -0.9626 -0.1915 0.1915
vn -0.8203 0.5481 0.1632
vn 0.5556 -0.0000 -0.8315
vn -0.9626 0.1915 -0.1915
vn -0.9132 0.3648 -0.1816
vn -0.5522 -0.8264 -0.1098
vn -0.9626 -0.1915 -0.1915
vn -0.8203 0.5481 -0.1632
vn -0.9808 -0.0000 0.1951
vn -0.1949 -0.9800 -0.0388
vn -0.8203 -0.5481 -0.1632
vn -0.4681 -0.8264 -0.3128
vn -0.8161 -0.1915 -0.5453
vn -0.6954 0.5481 -0.4647
vn -0.8315 -0.0000 0.5556
vn -0.1653 -0.9800 -0.1104
vn -0.6954 -0.5481 -0.4647
vn -0.8161 0.1915 -0.5453
vn -0.7742 0.3648 -0.5173
vn -0.4647 0.5481 -0.6954
vn -0.1951 -0.0000 -0.9808
vn -0.1104 -0.9800 -0.1653
vn -0.4647 -0.5481 -0.6954
vn -0.5453 0.1915 -0.8161
vn -0.5173 0.3648 -0.7742
vn -0.3128 -0.8264 -0.4681
vn -0.5453 -0.1915 -0.8161
vn -0.0388 -0.9800 -0.1949
vn -0.1632 -0.5481 -0.8203
vn -0.1915 0.1915 -0.9626
vn -0.1816 0.3648 -0.9132
vn -0.1098 -0.8264 -0.5522
vn -0.1915 -0.1915 -0.9626
vn -0.1632 0.5481 -0.8203
vn 0.8315 -0.0000 0.5556
vn -0.0000 1.0000 -0.0000
vn 0.1741 0.4515 -0.8751
vn 0.4957 0.4515 -0.7419
vn 0.7419 0.4515 -0.4957
vn 0.8751 0.4515 -0.1741
vn 0.8751 0.4515 0.1741
vn 0.7419 0.4515 0.4957
vn 0.4957 0.4515 0.7419
vn 0.1741 0.4515 0.8751
vn -0.1741 0.4515 0.8751
vn -0.4957 0.4515 0.7419
vn -0.7419 0.4515 0.4957
vn -0.8751 0.4515 0.1741
vn -0.8751 0.4515 -0.1741
vn -0.7419 0.4515 -0.4957
vn -0.4957 0.4515 -0.7419
vn -0.1741 0.4515 -0.8751
vn -0.0000 -1.0000 -0.0000
vn -0.1784 -0.4051 0.8967
vn -0.5079 -0.4051 0.7602
vn -0.7602 -0.4051 0.5079
vn -0.8967 -0.4051 0.1784
vn -0.8967 -0.4051 -0.1784
vn -0.7602 -0.4051 -0.5079
vn -0.5079 -0.4051 -0.7602
vn -0.1784 -0.4051 -0.8967
vn 0.1784 -0.4051 -0.8967
vn 0.5079 -0.4051 -0.7602
vn 0.7602 -0.4051 -0.5079
vn 0.8967 -0.4051 -0.1784
vn 0.8967 -0.4051 0.1784
vn 0.7602 -0.4051 0.5079
vn 0.5079 -0.4051 0.7602
vn 0.1784 -0.4051 0.8967
vn 0.3289 -0.5113 -0.7940
vn 0.1566 0.9125 -0.3780
vn 0.3679 -0.2752 0.8882
vn 0.3574 0.3574 -0.8629
vn 0.7940 -0.5113 -0.3289
vn 0.3780 0.9125 -0.1566
vn -0.8882 -0.2752 -0.3679
vn 0.8629 0.3574 -0.3574
vn 0.7940 -0.5113 0.3289
vn 0.3780 0.9125 0.1566
vn 0.8882 -0.2752 0.3679
vn 0.8629 0.3574 0.3574
vn 0.3289 -0.5113 0.7940
vn 0.1566 0.9125 0.3780
vn -0.3679 -0.2752 -0.8882
vn 0.3574 0.3574 0.8629
vn -0.3289 -0.5113 0.7940
vn -0.1566 0.9125 0.3780
vn 0.8882 -0.2752 -0.3679
vn -0.3574 0.3574 0.8629
vn -0.8629 0.3574 0.3574
vn -0.7940 -0.5113 0.3289
vn -0.3780 0.9125 0.1566
vn -0.8882 -0.2752 0.3679
vn -0.3679 -0.2752 0.8882
vn -0.8629 0.3574 -0.3574
vn -0.7940 -0.5113 -0.3289
vn -0.3780 0.9125 -0.1566
vn 0.3679 -0.2752 -0.8882
vn -0.3574 0.3574 -0.8629
vn -0.3289 -0.5113 -0.7940
vn -0.1566 0.9125 -0.3780
vt 0.750000 0.875000
vt 0.687500 0.875000
vt 0.718750 0.000000
vt 0.750000 0.125000
vt 0.687500 0.125000
vt 0.750000 0.250000
vt 0.687500 0.375000
vt 0.687500 0.250000
vt 0.750000 0.625000
vt 0.687500 0.500000
vt 0.750000 0.500000
vt 0.750000 0.750000
vt 0.687500 0.750000
vt 0.750000 0.375000
vt 0.687500 0.625000
vt 0.625000 0.625000
vt 0.625000 0.500000
vt 0.625000 0.750000
vt 0.625000 0.250000
vt 0.625000 0.125000
vt 0.625000 0.375000
vt 0.875000 0.875000
vt 0.812500 0.875000
vt 0.656250 0.000000
vt 0.562500 0.250000
vt 0.562500 0.125000
vt 0.562500 0.375000
vt 0.562500 0.625000
vt 0.500000 0.875000
vt 0.437500 0.875000
vt 0.593750 0.000000
vt 0.562500 0.500000
vt 0.625000 0.875000
vt 0.562500 0.750000
vt 0.500000 0.625000
vt 0.250000 0.875000
vt 0.187500 0.875000
vt 0.531250 0.000000
vt 0.500000 0.125000
vt 0.500000 0.250000
vt 0.500000 0.500000
vt 0.562500 0.875000
vt 0.500000 0.750000
vt 0.500000 0.375000
vt 0.468750 0.000000
vt 0.437500 0.125000
vt 0.437500 0.375000
vt 0.437500 0.250000
vt 0.437500 0.625000
vt 0.437500 0.500000
vt 0.437500 0.750000
vt 0.937500 0.875000
vt 0.375000 0.750000
vt 0.375000 0.125000
vt 0.375000 0.375000
vt 0.375000 0.625000
vt 0.125000 0.875000
vt 0.406250 0.000000
vt 0.375000 0.250000
vt 0.375000 0.500000
vt 0.312500 0.125000
vt 0.312500 0.375000
vt 0.312500 0.625000
vt 0.343750 0.000000
vt 0.312500 0.250000
vt 0.312500 0.500000
vt 0.375000 0.875000
vt 0.312500 0.750000
vt 1.000000 0.875000
vt 0.281250 0.000000
vt 0.250000 0.125000
vt 0.250000 0.375000
vt 0.250000 0.250000
vt 0.250000 0.625000
vt 0.250000 0.500000
vt 0.312500 0.875000
vt 0.250000 0.750000
vt 0.187500 0.375000
vt 0.187500 0.250000
vt 0.187500 0.625000
vt 0.187500 0.500000
vt 0.187500 0.750000
vt 0.187500 0.125000
vt 0.218750 0.000000
vt 0.125000 0.125000
vt 0.125000 0.375000
vt 0.125000 0.625000
vt 0.156250 0.000000
vt 0.125000 0.250000
vt 0.125000 0.500000
vt 0.125000 0.750000
vt 0.062500 0.375000
vt 0.062500 0.625000
vt 0.093750 0.000000
vt 0.062500 0.125000
vt 0.062500 0.250000
vt 0.062500 0.500000
vt 0.062500 0.750000
vt 0.031250 0.000000
vt 0.000000 0.125000
vt 0.000000 0.375000
vt 0.000000 0.250000
vt 0.000000 0.625000
vt 0.000000 0.500000
vt 0.062500 0.875000
vt 0.000000 0.750000
vt 1.000000 0.500000
vt 0.937500 0.625000
vt 0.937500 0.500000
vt 0.937500 0.750000
vt 1.000000 0.750000
vt 1.000000 0.250000
vt 0.937500 0.125000
vt 1.000000 0.125000
vt 0.937500 0.375000
vt 1.000000 0.375000
vt 1.000000 0.625000
vt 0.000000 0.875000
vt 0.968750 0.000000
vt 0.937500 0.250000
vt 0.875000 0.125000
vt 0.875000 0.375000
vt 0.875000 0.625000
vt 0.906250 0.000000
vt 0.875000 0.250000
vt 0.875000 0.500000
vt 0.875000 0.750000
vt 0.812500 0.625000
vt 0.843750 0.000000
vt 0.812500 0.125000
vt 0.812500 0.375000
vt 0.812500 0.250000
vt 0.812500 0.500000
vt 0.812500 0.750000
vt 0.781250 0.000000
vt 1.000000 1.000000
vt 0.937500 0.500000
vt 0.937500 1.000000
vt 0.875000 0.500000
vt 0.875000 1.000000
vt 0.812500 0.500000
vt 0.812500 1.000000
vt 0.750000 1.000000
vt 0.687500 1.000000
vt 0.625000 1.000000
vt 0.562500 1.000000
vt 0.500000 0.500000
vt 0.500000 1.000000
vt 0.437500 0.500000
vt 0.437500 1.000000
vt 0.375000 0.500000
vt 0.375000 1.000000
vt 0.312500 0.500000
vt 0.312500 1.000000
vt 0.250000 0.500000
vt 0.250000 1.000000
vt 0.187500 0.500000
vt 0.187500 1.000000
vt 0.125000 0.500000
vt 0.080294 0.419706
vt 0.101401 0.398599
vt 0.169579 0.444154
vt 0.419706 0.080294
vt 0.398599 0.101401
vt 0.330421 0.055846
vt 0.125000 1.000000
vt 0.062500 0.500000
vt 0.062500 1.000000
vt 0.841844 0.471731
vt 0.830421 0.444154
vt 0.750000 0.460151
vt 0.658156 0.028269
vt 0.669579 0.055846
vt 0.750000 0.039849
vt 0.937500 0.586169
vt 1.000000 0.913831
vt 1.000000 0.586169
vt 0.875000 0.913831
vt 0.875000 0.586169
vt 0.812500 0.586169
vt 0.812500 0.913831
vt 0.750000 0.913831
vt 0.750000 0.586169
vt 0.687500 0.586169
vt 0.687500 0.913831
vt 0.625000 0.586169
vt 0.625000 0.913831
vt 0.562500 0.586169
vt 0.562500 0.913831
vt 0.500000 0.913831
vt 0.500000 0.586169
vt 0.437500 0.586169
vt 0.437500 0.913831
vt 0.375000 0.586169
vt 0.375000 0.913831
vt 0.312500 0.913831
vt 0.312500 0.586169
vt 0.250000 0.913831
vt 0.250000 0.586169
vt 0.187500 0.586169
vt 0.125000 0.913831
vt 0.125000 0.586169
vt 0.062500 0.913831
vt 0.062500 0.586169
vt 0.000000 0.913831
vt 0.000000 0.586169
vt 0.250000 0.460151
vt 0.250000 0.490000
vt 0.158156 0.471731
vt 0.028269 0.341844
vt 0.055846 0.330421
vt 0.010000 0.250000
vt 0.039849 0.250000
vt 0.055846 0.169579
vt 0.028269 0.158156
vt 0.080294 0.080294
vt 0.158156 0.028269
vt 0.169579 0.055846
vt 0.250000 0.010000
vt 0.341844 0.028269
vt 0.471731 0.158156
vt 0.444154 0.169579
vt 0.490000 0.250000
vt 0.471731 0.341844
vt 0.444154 0.330421
vt 0.419706 0.419706
vt 0.341844 0.471731
vt 0.330421 0.444154
vt 0.101401 0.101401
vt 0.398599 0.398599
vt 0.460151 0.250000
vt 0.250000 0.039849
vt 0.000000 1.000000
vt 0.539849 0.250000
vt 0.555846 0.169579
vt 0.528269 0.158156
vt 0.510000 0.250000
vt 0.528269 0.341844
vt 0.580294 0.419706
vt 0.601401 0.398599
vt 0.658156 0.471731
vt 0.750000 0.490000
vt 0.919706 0.419706
vt 0.898599 0.398599
vt 0.971731 0.341844
vt 0.990000 0.250000
vt 0.960151 0.250000
vt 0.971731 0.158156
vt 0.919706 0.080294
vt 0.898599 0.101401
vt 0.841844 0.028269
vt 0.830421 0.055846
vt 0.555846 0.330421
vt 0.944154 0.169579
vt 0.944154 0.330421
vt 0.669579 0.444154
vt 0.750000 0.010000
vt 0.580294 0.080294
vt 0.601401 0.101401
vt 0.937500 0.913831
vt 0.187500 0.913831
vt 0.750000 0.250000
vt 0.750000 0.750000
vt 0.375000 0.250000
vt 0.250000 0.250000
vt 0.500000 0.250000
vt 0.500000 0.750000
vt 0.875000 0.250000
vt 1.000000 0.250000
vt 0.375000 0.750000
vt 0.250000 0.750000
vt 0.125000 0.250000
vt 0.125000 0.750000
vt 0.000000 0.250000
vt 0.062500 1.000000
vt 0.000000 0.750000
vt 1.000000 0.750000
vt 0.875000 0.750000
s 0
usemtl base
f 112/1/1 1/2/1 7/2/1
f 6/3/2 5/4/2 13/5/2
f 114/6/3 11/7/3 12/8/3
f 2/9/4 10/10/4 3/11/4
f 113/12/5 7/2/5 8/13/5
f 114/6/6 13/5/6 5/4/6
f 3/11/7 11/7/7 4/14/7
f 113/12/8 9/15/8 2/9/8
f 10/10/9 16/16/9 17/17/9
f 7/2/10 15/18/10 8/13/10
f 13/5/11 19/19/11 20/20/11
f 10/10/12 18/21/12 11/7/12
f 9/15/13 15/18/13 16/16/13
f 98/22/14 128/23/14 105/23/14
f 6/24/15 13/5/15 20/20/15
f 11/7/16 19/19/16 12/8/16
f 20/20/17 26/25/17 27/26/17
f 17/17/18 25/27/18 18/21/18
f 15/18/19 23/28/19 16/16/19
f 28/29/20 118/30/20 35/30/20
f 6/31/21 20/20/21 27/26/21
f 18/21/22 26/25/22 19/19/22
f 17/17/23 23/28/23 24/32/23
f 14/33/24 22/34/24 15/18/24
f 22/34/25 30/35/25 23/28/25
f 56/36/26 122/37/26 63/37/26
f 6/38/27 27/26/27 34/39/27
f 25/27/28 33/40/28 26/25/28
f 24/32/29 30/35/29 31/41/29
f 21/42/30 29/43/30 22/34/30
f 26/25/31 34/39/31 27/26/31
f 24/32/32 32/44/32 25/27/32
f 6/45/33 34/39/33 41/46/33
f 33/40/34 39/47/34 40/48/34
f 31/41/35 37/49/35 38/50/35
f 28/29/36 36/51/36 29/43/36
f 33/40/37 41/46/37 34/39/37
f 31/41/38 39/47/38 32/44/38
f 29/43/39 37/49/39 30/35/39
f 91/52/40 127/22/40 98/22/40
f 35/30/41 43/53/41 36/51/41
f 40/48/42 48/54/42 41/46/42
f 38/50/43 46/55/43 39/47/43
f 36/51/44 44/56/44 37/49/44
f 63/37/45 123/57/45 70/57/45
f 6/58/46 41/46/46 48/54/46
f 40/48/47 46/55/47 47/59/47
f 38/50/48 44/56/48 45/60/48
f 47/59/49 55/61/49 48/54/49
f 45/60/50 53/62/50 46/55/50
f 43/53/51 51/63/51 44/56/51
f 21/42/52 117/29/52 28/29/52
f 6/64/53 48/54/53 55/61/53
f 47/59/54 53/62/54 54/65/54
f 45/60/55 51/63/55 52/66/55
f 42/67/56 50/68/56 43/53/56
f 84/69/57 126/52/57 91/52/57
f 6/70/58 55/61/58 62/71/58
f 54/65/59 60/72/59 61/73/59
f 52/66/60 58/74/60 59/75/60
f 49/76/61 57/77/61 50/68/61
f 55/61/62 61/73/62 62/71/62
f 52/66/63 60/72/63 53/62/63
f 50/68/64 58/74/64 51/63/64
f 61/73/65 67/78/65 68/79/65
f 59/75/66 65/80/66 66/81/66
f 56/36/67 64/82/67 57/77/67
f 61/73/68 69/83/68 62/71/68
f 59/75/69 67/78/69 60/72/69
f 57/77/70 65/80/70 58/74/70
f 42/67/71 120/76/71 49/76/71
f 6/84/72 62/71/72 69/83/72
f 68/79/73 76/85/73 69/83/73
f 66/81/74 74/86/74 67/78/74
f 64/82/75 72/87/75 65/80/75
f 14/33/76 116/42/76 21/42/76
f 6/88/77 69/83/77 76/85/77
f 68/79/78 74/86/78 75/89/78
f 66/81/79 72/87/79 73/90/79
f 63/37/80 71/91/80 64/82/80
f 73/90/81 81/92/81 74/86/81
f 71/91/82 79/93/82 72/87/82
f 49/76/83 121/36/83 56/36/83
f 6/94/84 76/85/84 83/95/84
f 75/89/85 81/92/85 82/96/85
f 73/90/86 79/93/86 80/97/86
f 70/57/87 78/98/87 71/91/87
f 75/89/88 83/95/88 76/85/88
f 6/99/89 83/95/89 90/100/89
f 82/96/90 88/101/90 89/102/90
f 80/97/91 86/103/91 87/104/91
f 77/105/92 85/106/92 78/98/92
f 83/95/93 89/102/93 90/100/93
f 80/97/94 88/101/94 81/92/94
f 78/98/95 86/103/95 79/93/95
f 7/2/96 115/33/96 14/33/96
f 87/107/97 93/108/97 94/109/97
f 84/69/98 92/110/98 85/111/98
f 89/112/99 97/113/99 90/114/99
f 87/107/100 95/115/100 88/116/100
f 85/111/101 93/108/101 86/117/101
f 77/105/102 125/118/102 84/118/102
f 6/119/103 90/114/103 97/113/103
f 89/112/104 95/115/104 96/120/104
f 96/120/105 104/121/105 97/113/105
f 94/109/106 102/122/106 95/115/106
f 92/110/107 100/123/107 93/108/107
f 70/57/108 124/105/108 77/105/108
f 6/124/109 97/113/109 104/121/109
f 96/120/110 102/122/110 103/125/110
f 94/109/111 100/123/111 101/126/111
f 91/52/112 99/127/112 92/110/112
f 99/127/113 107/128/113 100/123/113
f 105/23/114 129/1/114 112/1/114
f 6/129/115 104/121/115 111/130/115
f 103/125/116 109/131/116 110/132/116
f 101/126/117 107/128/117 108/133/117
f 98/22/118 106/134/118 99/127/118
f 104/121/119 110/132/119 111/130/119
f 101/126/120 109/131/120 102/122/120
f 6/135/121 111/130/121 5/4/121
f 110/132/122 4/14/122 114/6/122
f 108/133/123 2/9/123 3/11/123
f 105/23/124 113/12/124 106/134/124
f 110/132/125 5/4/125 111/130/125
f 108/133/126 4/14/126 109/131/126
f 106/134/127 2/9/127 107/128/127
f 35/30/128 119/67/128 42/67/128
f 122/37/129 118/30/129 1/2/129
f 112/1/1 129/1/1 1/2/1
f 114/6/3 4/14/3 11/7/3
f 2/9/4 9/15/4 10/10/4
f 113/12/5 112/1/5 7/2/5
f 114/6/6 12/8/6 13/5/6
f 3/11/7 10/10/7 11/7/7
f 113/12/8 8/13/8 9/15/8
f 10/10/9 9/15/9 16/16/9
f 7/2/10 14/33/10 15/18/10
f 13/5/11 12/8/11 19/19/11
f 10/10/12 17/17/12 18/21/12
f 9/15/13 8/13/13 15/18/13
f 98/22/14 127/22/14 128/23/14
f 11/7/16 18/21/16 19/19/16
f 20/20/17 19/19/17 26/25/17
f 17/17/18 24/32/18 25/27/18
f 15/18/19 22/34/19 23/28/19
f 28/29/20 117/29/20 118/30/20
f 18/21/22 25/27/22 26/25/22
f 17/17/23 16/16/23 23/28/23
f 14/33/24 21/42/24 22/34/24
f 22/34/25 29/43/25 30/35/25
f 56/36/26 121/36/26 122/37/26
f 25/27/28 32/44/28 33/40/28
f 24/32/29 23/28/29 30/35/29
f 21/42/30 28/29/30 29/43/30
f 26/25/31 33/40/31 34/39/31
f 24/32/32 31/41/32 32/44/32
f 33/40/34 32/44/34 39/47/34
f 31/41/35 30/35/35 37/49/35
f 28/29/36 35/30/36 36/51/36
f 33/40/37 40/48/37 41/46/37
f 31/41/38 38/50/38 39/47/38
f 29/43/39 36/51/39 37/49/39
f 91/52/40 126/52/40 127/22/40
f 35/30/41 42/67/41 43/53/41
f 40/48/42 47/59/42 48/54/42
f 38/50/43 45/60/43 46/55/43
f 36/51/44 43/53/44 44/56/44
f 63/37/45 122/37/45 123/57/45
f 40/48/47 39/47/47 46/55/47
f 38/50/48 37/49/48 44/56/48
f 47/59/49 54/65/49 55/61/49
f 45/60/50 52/66/50 53/62/50
f 43/53/51 50/68/51 51/63/51
f 21/42/52 116/42/52 117/29/52
f 47/59/54 46/55/54 53/62/54
f 45/60/55 44/56/55 51/63/55
f 42/67/56 49/76/56 50/68/56
f 84/69/57 125/69/57 126/52/57
f 54/65/59 53/62/59 60/72/59
f 52/66/60 51/63/60 58/74/60
f 49/76/61 56/36/61 57/77/61
f 55/61/62 54/65/62 61/73/62
f 52/66/63 59/75/63 60/72/63
f 50/68/64 57/77/64 58/74/64
f 61/73/65 60/72/65 67/78/65
f 59/75/66 58/74/66 65/80/66
f 56/36/67 63/37/67 64/82/67
f 61/73/68 68/79/68 69/83/68
f 59/75/69 66/81/69 67/78/69
f 57/77/70 64/82/70 65/80/70
f 42/67/71 119/67/71 120/76/71
f 68/79/73 75/89/73 76/85/73
f 66/81/74 73/90/74 74/86/74
f 64/82/75 71/91/75 72/87/75
f 14/33/76 115/33/76 116/42/76
f 68/79/78 67/78/78 74/86/78
f 66/81/79 65/80/79 72/87/79
f 63/37/80 70/57/80 71/91/80
f 73/90/81 80/97/81 81/92/81
f 71/91/82 78/98/82 79/93/82
f 49/76/83 120/76/83 121/36/83
f 75/89/85 74/86/85 81/92/85
f 73/90/86 72/87/86 79/93/86
f 70/57/87 77/105/87 78/98/87
f 75/89/88 82/96/88 83/95/88
f 82/96/90 81/92/90 88/101/90
f 80/97/91 79/93/91 86/103/91
f 77/105/92 84/118/92 85/106/92
f 83/95/93 82/96/93 89/102/93
f 80/97/94 87/104/94 88/101/94
f 78/98/95 85/106/95 86/103/95
f 7/2/96 1/2/96 115/33/96
f 87/107/97 86/117/97 93/108/97
f 84/69/98 91/52/98 92/110/98
f 89/112/99 96/120/99 97/113/99
f 87/107/100 94/109/100 95/115/100
f 85/111/101 92/110/101 93/108/101
f 77/105/102 124/105/102 125/118/102
f 89/112/104 88/116/104 95/115/104
f 96/120/105 103/125/105 104/121/105
f 94/109/106 101/126/106 102/122/106
f 92/110/107 99/127/107 100/123/107
f 70/57/108 123/57/108 124/105/108
f 96/120/110 95/115/110 102/122/110
f 94/109/111 93/108/111 100/123/111
f 91/52/112 98/22/112 99/127/112
f 99/127/113 106/134/113 107/128/113
f 105/23/114 128/23/114 129/1/114
f 103/125/116 102/122/116 109/131/116
f 101/126/117 100/123/117 107/128/117
f 98/22/118 105/23/118 106/134/118
f 104/121/119 103/125/119 110/132/119
f 101/126/120 108/133/120 109/131/120
f 110/132/122 109/131/122 4/14/122
f 108/133/123 107/128/123 2/9/123
f 105/23/124 112/1/124 113/12/124
f 110/132/125 114/6/125 5/4/125
f 108/133/126 3/11/126 4/14/126
f 106/134/127 113/12/127 2/9/127
f 35/30/128 118/30/128 119/67/128
f 1/2/129 129/1/129 128/23/129
f 128/23/129 127/22/129 126/52/129
f 126/52/129 125/69/129 124/105/129
f 124/105/129 123/57/129 126/52/129
f 123/57/129 122/37/129 126/52/129
f 122/37/129 121/36/129 120/76/129
f 120/76/129 119/67/129 122/37/129
f 119/67/129 118/30/129 122/37/129
f 118/30/129 117/29/129 116/42/129
f 116/42/129 115/33/129 1/2/129
f 1/2/129 128/23/129 126/52/129
f 118/30/129 116/42/129 1/2/129
f 1/2/129 126/52/129 122/37/129
usemtl cappello
f 131/136/130 132/137/130 130/107/130
f 133/138/131 134/139/131 132/137/131
f 135/140/132 136/141/132 134/139/132
f 137/142/133 138/11/133 136/141/133
f 139/143/134 140/10/134 138/11/134
f 141/144/135 142/17/135 140/10/135
f 143/145/136 144/32/136 142/17/136
f 145/146/137 146/147/137 144/32/137
f 147/148/138 148/149/138 146/147/138
f 149/150/139 150/151/139 148/149/139
f 151/152/140 152/153/140 150/151/140
f 153/154/141 154/155/141 152/153/141
f 155/156/142 156/157/142 154/155/142
f 157/158/143 158/159/143 156/157/143
f 159/160/129 176/161/129 162/162/129
f 143/163/129 177/164/129 169/165/129
f 159/166/144 160/167/144 158/159/144
f 161/168/145 130/104/145 160/167/145
f 132/169/146 180/170/146 178/171/146
f 148/172/146 185/173/146 186/174/146
f 180/175/147 163/176/147 178/177/147
f 175/178/148 180/175/148 179/179/148
f 175/178/149 191/180/149 173/181/149
f 171/182/150 191/180/150 182/183/150
f 171/182/151 183/184/151 172/185/151
f 172/185/152 181/186/152 177/187/152
f 177/187/153 193/188/153 169/189/153
f 170/190/154 193/188/154 186/191/154
f 170/190/155 185/192/155 168/193/155
f 168/193/156 184/194/156 174/195/156
f 165/196/157 184/194/157 192/197/157
f 166/198/158 192/197/158 187/199/158
f 189/200/159 166/198/159 187/199/159
f 176/201/160 189/200/160 188/202/160
f 162/203/161 188/202/161 190/204/161
f 163/205/162 190/204/162 178/206/162
f 131/136/130 133/138/130 132/137/130
f 133/138/131 135/140/131 134/139/131
f 135/140/132 137/142/132 136/141/132
f 137/142/133 139/143/133 138/11/133
f 139/143/134 141/144/134 140/10/134
f 141/144/135 143/145/135 142/17/135
f 143/145/136 145/146/136 144/32/136
f 145/146/137 147/148/137 146/147/137
f 147/148/138 149/150/138 148/149/138
f 149/150/139 151/152/139 150/151/139
f 151/152/140 153/154/140 152/153/140
f 153/154/141 155/156/141 154/155/141
f 155/156/142 157/158/142 156/157/142
f 157/158/143 159/166/143 158/159/143
f 162/162/129 163/207/129 131/208/129
f 131/208/129 161/209/129 162/162/129
f 161/209/129 159/160/129 162/162/129
f 159/160/129 157/210/129 167/211/129
f 157/210/129 155/212/129 167/211/129
f 155/212/129 166/213/129 167/211/129
f 159/160/129 167/211/129 176/161/129
f 165/214/129 166/213/129 155/212/129
f 155/212/129 153/215/129 165/214/129
f 153/215/129 151/216/129 165/214/129
f 151/216/129 149/217/129 168/218/129
f 149/217/129 147/219/129 168/218/129
f 147/219/129 145/220/129 169/165/129
f 145/220/129 143/163/129 169/165/129
f 143/163/129 141/221/129 172/222/129
f 141/221/129 139/223/129 172/222/129
f 139/223/129 137/224/129 173/225/129
f 137/224/129 135/226/129 173/225/129
f 135/226/129 133/227/129 164/228/129
f 133/227/129 131/208/129 164/228/129
f 131/208/129 163/207/129 164/228/129
f 174/229/129 165/214/129 151/216/129
f 135/226/129 164/228/129 175/230/129
f 135/226/129 175/230/129 173/225/129
f 168/218/129 174/229/129 151/216/129
f 139/223/129 173/225/129 171/231/129
f 170/232/129 168/218/129 147/219/129
f 169/165/129 170/232/129 147/219/129
f 139/223/129 171/231/129 172/222/129
f 143/163/129 172/222/129 177/164/129
f 159/166/144 161/168/144 160/167/144
f 161/168/145 131/233/145 130/104/145
f 187/234/146 192/235/146 152/236/146
f 152/236/146 154/237/146 187/234/146
f 154/237/146 156/238/146 187/234/146
f 156/238/146 158/239/146 188/240/146
f 158/239/146 160/241/146 188/240/146
f 160/241/146 130/242/146 178/171/146
f 130/242/146 132/169/146 178/171/146
f 132/169/146 134/243/146 179/244/146
f 134/243/146 136/245/146 179/244/146
f 136/245/146 138/246/146 182/247/146
f 138/246/146 140/248/146 182/247/146
f 140/248/146 142/249/146 181/250/146
f 142/249/146 144/251/146 181/250/146
f 144/251/146 193/252/146 181/250/146
f 189/253/146 187/234/146 156/238/146
f 140/248/146 181/250/146 183/254/146
f 140/248/146 183/254/146 182/247/146
f 188/240/146 189/253/146 156/238/146
f 136/245/146 182/247/146 191/255/146
f 190/256/146 188/240/146 160/241/146
f 178/171/146 190/256/146 160/241/146
f 136/245/146 191/255/146 179/244/146
f 132/169/146 179/244/146 180/170/146
f 186/174/146 193/252/146 144/251/146
f 144/251/146 146/257/146 186/174/146
f 146/257/146 148/172/146 186/174/146
f 148/172/146 150/258/146 184/259/146
f 150/258/146 152/236/146 184/259/146
f 152/236/146 192/235/146 184/259/146
f 148/172/146 184/259/146 185/173/146
f 180/175/147 164/260/147 163/176/147
f 175/178/148 164/260/148 180/175/148
f 175/178/149 179/179/149 191/180/149
f 171/182/150 173/181/150 191/180/150
f 171/182/151 182/183/151 183/184/151
f 172/185/152 183/184/152 181/186/152
f 177/187/153 181/186/153 193/188/153
f 170/190/154 169/189/154 193/188/154
f 170/190/155 186/191/155 185/192/155
f 168/193/156 185/192/156 184/194/156
f 165/196/157 174/195/157 184/194/157
f 166/198/158 165/196/158 192/197/158
f 189/200/159 167/261/159 166/198/159
f 176/201/160 167/261/160 189/200/160
f 162/203/161 176/201/161 188/202/161
f 163/205/162 162/203/162 190/204/162
usemtl lampada
f 197/262/163 200/17/163 201/19/163
f 195/263/164 194/144/164 199/18/164
f 207/264/165 223/265/165 222/264/165
f 195/263/166 200/17/166 196/11/166
f 201/19/167 203/147/167 204/266/167
f 199/18/168 194/146/168 202/267/168
f 219/268/169 225/269/169 216/269/169
f 199/18/170 203/147/170 200/17/170
f 203/147/171 207/264/171 204/266/171
f 202/267/172 194/150/172 205/270/172
f 207/264/173 221/266/173 204/266/173
f 202/267/174 206/151/174 203/147/174
f 206/151/175 210/265/175 207/264/175
f 205/270/176 194/154/176 208/271/176
f 219/268/177 198/262/177 226/268/177
f 205/270/178 209/155/178 206/151/178
f 209/155/179 213/272/179 210/265/179
f 208/271/180 194/158/180 211/273/180
f 204/266/181 220/19/181 201/19/181
f 208/271/182 212/159/182 209/155/182
f 211/273/183 215/104/183 212/159/183
f 212/159/184 216/274/184 213/272/184
f 211/273/185 194/275/185 214/276/185
f 216/274/186 224/272/186 213/272/186
f 213/272/187 223/265/187 210/265/187
f 214/277/188 218/139/188 215/107/188
f 215/107/189 219/268/189 216/269/189
f 214/277/190 194/138/190 217/278/190
f 201/19/191 198/262/191 197/262/191
f 218/139/192 195/263/192 196/11/192
f 218/139/193 197/262/193 219/268/193
f 217/278/194 194/142/194 195/263/194
f 222/264/146 224/272/146 226/268/146
f 197/262/163 196/11/163 200/17/163
f 207/264/165 210/265/165 223/265/165
f 195/263/166 199/18/166 200/17/166
f 201/19/167 200/17/167 203/147/167
f 219/268/169 226/268/169 225/269/169
f 199/18/170 202/267/170 203/147/170
f 203/147/171 206/151/171 207/264/171
f 207/264/173 222/264/173 221/266/173
f 202/267/174 205/270/174 206/151/174
f 206/151/175 209/155/175 210/265/175
f 219/268/177 197/262/177 198/262/177
f 205/270/178 208/271/178 209/155/178
f 209/155/179 212/159/179 213/272/179
f 204/266/181 221/266/181 220/19/181
f 208/271/182 211/273/182 212/159/182
f 211/273/183 214/276/183 215/104/183
f 212/159/184 215/104/184 216/274/184
f 216/274/186 225/274/186 224/272/186
f 213/272/187 224/272/187 223/265/187
f 214/277/188 217/278/188 218/139/188
f 215/107/189 218/139/189 219/268/189
f 201/19/191 220/19/191 198/262/191
f 218/139/192 217/278/192 195/263/192
f 218/139/193 196/11/193 197/262/193
f 226/268/146 198/262/146 220/19/146
f 220/19/146 221/266/146 222/264/146
f 222/264/146 223/265/146 224/272/146
f 224/272/146 225/274/146 226/268/146
f 226/268/146 220/19/146 222/264/146
