# Blender 5.1.2
# www.blender.org
mtllib newPhoto.mtl
o photo
v -6.485928 3.313162 -9.195590
v -0.983063 3.313162 -9.195590
v -0.983064 6.960960 -9.195590
v -6.485928 6.960960 -9.195590
v -0.983063 3.313162 -9.099075
v -0.983064 6.960960 -9.099075
v -6.485928 6.960960 -9.099075
v -6.485928 3.313162 -9.099075
vn -0.0000 -0.0000 -1.0000
vn -0.0000 -0.0000 1.0000
vn -0.0000 1.0000 -0.0000
vn -1.0000 -0.0000 -0.0000
vn -0.0000 -1.0000 -0.0000
vn 1.0000 -0.0000 -0.0000
vt -0.000000 1.000000
vt 1.000000 1.000000
vt 1.000000 0.000000
vt 0.000000 0.000000
s 0
f 2/1/1 1/2/1 4/3/1
f 2/1/1 4/3/1 3/4/1
f 5/1/2 7/3/2 8/2/2
f 5/1/2 6/4/2 7/3/2
f 4/3/3 6/4/3 3/4/3
f 1/2/4 7/3/4 4/3/4
f 2/1/5 8/2/5 1/2/5
f 3/4/6 5/1/6 2/1/6
f 4/3/3 7/3/3 6/4/3
f 1/2/4 8/2/4 7/3/4
f 2/1/5 5/1/5 8/2/5
f 3/4/6 6/4/6 5/1/6
