# Blender 5.1.2
# www.blender.org
mtllib PhotoFrame.mtl
o photoFrame
v -5.558394 2.385629 -9.138681
v -5.558394 7.888493 -9.138681
v -5.702535 2.168187 -9.399889
v -5.702535 8.105935 -9.399889
v -1.910597 2.385629 -9.138681
v -1.910597 7.888493 -9.138681
v -1.766456 2.168187 -9.399889
v -1.766456 8.105935 -9.399889
v -5.702535 2.168187 -9.138681
v -5.702535 8.105935 -9.138681
v -1.766456 8.105935 -9.138681
v -1.766456 2.168187 -9.138681
v -5.558394 2.385629 -9.295590
v -5.558394 7.888493 -9.295590
v -1.910597 7.888493 -9.295590
v -1.910597 2.385629 -9.295590
vn -1.0000 -0.0000 -0.0000
vn -0.0000 -0.0000 -1.0000
vn 1.0000 -0.0000 -0.0000
vn -0.0000 -1.0000 -0.0000
vn -0.0000 1.0000 -0.0000
vn -0.0000 -0.0000 1.0000
vt 0.000000 0.283490
vt 0.283490 0.000000
vt 0.283490 0.283490
vt 0.000000 0.566979
vt 0.283490 0.283490
vt 0.283490 0.566979
vt 0.283490 0.283490
vt 0.566979 0.000000
vt 0.566979 0.283490
vt 0.566979 0.262727
vt 0.737273 0.525453
vt 0.566979 0.525453
vt 0.566979 0.566979
vt 0.283490 0.283490
vt 0.566979 0.283490
vt 0.283490 0.850469
vt 0.000000 0.566979
vt 0.283490 0.566979
vt 0.293871 0.577361
vt 0.566979 0.566979
vt 0.556598 0.577361
vt 0.556598 0.840087
vt 0.283490 0.850469
vt 0.293871 0.840087
vt 0.566979 0.850469
vt 0.283490 0.566979
vt 0.829706 0.000000
vt 0.829706 0.262727
vt 0.829706 0.000000
vt 1.000000 0.262727
vt 0.829706 0.262727
vt 0.566979 0.525453
vt 0.737273 0.788180
vt 0.566979 0.788180
vt 1.000000 0.525453
vt 0.000000 0.000000
vt 0.000000 0.283490
vt 0.283490 0.000000
vt 0.737273 0.262727
vt 0.283490 0.566979
vt 0.000000 0.850469
vt 0.566979 0.000000
vt 1.000000 0.000000
vt 0.737273 0.525453
vt 0.829706 0.525453
s 0
f 10/1/1 3/2/1 9/3/1
f 4/4/2 7/5/2 3/6/2
f 8/7/3 12/8/3 7/9/3
f 2/10/4 15/11/4 6/12/4
f 7/13/4 9/14/4 3/15/4
f 4/16/5 11/17/5 8/18/5
f 2/19/6 9/20/6 1/21/6
f 5/22/6 11/23/6 6/24/6
f 1/21/6 12/25/6 5/22/6
f 6/24/6 10/26/6 2/19/6
f 15/10/6 13/27/6 16/28/6
f 6/29/1 16/30/1 5/31/1
f 5/32/5 13/33/5 1/34/5
f 1/35/3 14/31/3 2/30/3
f 10/1/1 4/36/1 3/2/1
f 4/4/2 8/37/2 7/5/2
f 8/7/3 11/38/3 12/8/3
f 2/10/4 14/39/4 15/11/4
f 7/13/4 12/40/4 9/14/4
f 4/16/5 10/41/5 11/17/5
f 2/19/6 10/26/6 9/20/6
f 5/22/6 12/25/6 11/23/6
f 1/21/6 9/20/6 12/25/6
f 6/24/6 11/23/6 10/26/6
f 15/10/6 14/42/6 13/27/6
f 6/29/1 15/43/1 16/30/1
f 5/32/5 16/44/5 13/33/5
f 1/35/3 13/45/3 14/31/3
