# Blender 5.1.2
# www.blender.org
mtllib Table.mtl
o Table
v 4.047761 2.550880 2.440062
v 4.047761 2.550880 -2.440063
v -4.047761 2.550880 2.440063
v -4.047761 2.550880 -2.440062
v -4.047761 2.913246 2.440063
v 4.047761 2.913246 2.440062
v 4.047761 2.913246 -2.440063
v -4.047761 2.913246 -2.440062
v -3.293677 2.604988 -2.060372
v -3.293677 0.002766 -2.060372
v -2.742016 2.604988 -2.060372
v -2.742016 0.002766 -2.060372
v -3.293677 2.604988 -1.508711
v -3.293677 0.002766 -1.508711
v -2.742016 2.604988 -1.508711
v -2.742016 0.002766 -1.508711
v -3.293677 2.604988 2.060372
v -3.293677 0.002766 2.060372
v -2.742016 2.604988 2.060372
v -2.742016 0.002766 2.060372
v -3.293677 2.604988 1.508711
v -3.293677 0.002766 1.508711
v -2.742016 2.604988 1.508711
v -2.742016 0.002766 1.508711
v 3.293677 2.604988 -2.060372
v 3.293677 0.002766 -2.060372
v 2.742016 2.604988 -2.060372
v 2.742016 0.002766 -2.060372
v 3.293677 2.604988 -1.508711
v 3.293677 0.002766 -1.508711
v 2.742016 2.604988 -1.508711
v 2.742016 0.002766 -1.508711
v 3.293677 2.604988 2.060372
v 3.293677 0.002766 2.060372
v 2.742016 2.604988 2.060372
v 2.742016 0.002766 2.060372
v 3.293677 2.604988 1.508711
v 3.293677 0.002766 1.508711
v 2.742016 2.604988 1.508711
v 2.742016 0.002766 1.508711
vn -0.0000 -1.0000 -0.0000
vn -0.0000 1.0000 -0.0000
vn -0.0000 -0.0000 -1.0000
vn -0.0000 -0.0000 1.0000
vn -1.0000 -0.0000 -0.0000
vn 1.0000 -0.0000 -0.0000
vt 0.390241 0.000000
vt 0.000000 0.390241
vt 0.000000 0.000000
vt 0.000000 0.390241
vt 0.390241 0.780482
vt 0.000000 0.780482
vt 0.460946 0.390241
vt 0.390241 -0.000000
vt 0.460946 -0.000000
vt 0.531651 0.390241
vt 0.460946 -0.000000
vt 0.531651 0.000000
vt 0.602356 0.390241
vt 0.531651 -0.000000
vt 0.602356 -0.000000
vt 0.673061 0.390241
vt 0.602356 -0.000000
vt 0.673061 0.000000
vt 0.699653 0.551861
vt 0.673061 0.507747
vt 0.699653 0.507747
vt 0.673061 0.000000
vt 0.717174 0.507747
vt 0.673061 0.507747
vt 0.549173 0.390241
vt 0.575766 0.897987
vt 0.549173 0.897987
vt 0.699653 0.595974
vt 0.673061 0.551861
vt 0.699653 0.551861
vt 0.575766 0.390241
vt 0.602358 0.897987
vt 0.717174 0.000000
vt 0.761288 0.507747
vt 0.717174 0.507747
vt 0.673061 0.640088
vt 0.699653 0.595974
vt 0.699653 0.640088
vt 0.761288 0.507747
vt 0.805402 0.000000
vt 0.805402 0.507747
vt 0.602359 0.897987
vt 0.628951 0.390241
vt 0.628951 0.897987
vt 0.673061 0.684202
vt 0.699653 0.640088
vt 0.699653 0.684202
vt 0.655544 0.390241
vt 0.655544 0.897987
vt 0.849516 0.000000
vt 0.849516 0.507747
vt 0.726246 0.507747
vt 0.699653 0.551861
vt 0.699653 0.507747
vt 0.893630 0.000000
vt 0.893630 0.507747
vt 0.893630 0.507747
vt 0.920222 0.000000
vt 0.920222 0.507747
vt 0.726246 0.551861
vt 0.699653 0.595974
vt 0.699653 0.551861
vt 0.946815 0.000000
vt 0.946815 0.507747
vt 0.390241 0.897988
vt 0.434355 0.390241
vt 0.434355 0.897988
vt 0.726246 0.640088
vt 0.699653 0.640088
vt 0.460946 0.390241
vt 0.505060 0.897987
vt 0.460946 0.897987
vt 0.946815 0.000000
vt 0.973407 0.507747
vt 0.946815 0.507747
vt 0.699653 0.640088
vt 0.726246 0.684202
vt 0.699653 0.684202
vt 0.973407 0.000000
vt 1.000000 0.507747
vt 0.973407 0.507747
vt 0.505060 0.390241
vt 0.390241 0.390241
vt 0.390241 0.390241
vt 0.390241 0.390241
vt 0.460946 0.390241
vt 0.531651 0.390241
vt 0.673061 0.551861
vt 0.717174 0.000000
vt 0.673061 0.595974
vt 0.602358 0.390241
vt 0.761288 0.000000
vt 0.673061 0.595974
vt 0.761288 0.000000
vt 0.602359 0.390241
vt 0.673061 0.640088
vt 0.726246 0.551861
vt 0.893630 0.000000
vt 0.726246 0.595974
vt 0.390241 0.390241
vt 0.973407 0.000000
vt 0.726246 0.640088
vt 1.000000 0.000000
s 0
usemtl base
f 3/1/1 2/2/1 1/3/1
f 7/4/2 5/5/2 6/6/2
f 4/7/3 7/8/3 2/9/3
f 1/10/4 5/11/4 3/12/4
f 3/13/5 8/14/5 4/15/5
f 2/16/6 6/17/6 1/18/6
f 3/1/1 4/83/1 2/2/1
f 7/4/2 8/84/2 5/5/2
f 4/7/3 8/85/3 7/8/3
f 1/10/4 6/86/4 5/11/4
f 3/13/5 5/87/5 8/14/5
f 2/16/6 7/13/6 6/17/6
f 13/19/2 11/20/2 9/21/2
f 11/22/6 16/23/6 12/24/6
f 15/25/4 14/26/4 16/27/4
f 10/28/1 16/29/1 14/30/1
f 9/31/3 12/32/3 10/26/3
f 13/33/5 10/34/5 14/35/5
f 19/36/2 21/37/2 17/38/2
f 24/39/6 19/40/6 20/41/6
f 22/42/3 23/43/3 24/44/3
f 24/45/1 18/46/1 22/47/1
f 20/44/4 17/48/4 18/49/4
f 18/41/5 21/50/5 22/51/5
f 27/52/2 29/53/2 25/54/2
f 32/51/5 27/55/5 28/56/5
f 30/57/4 31/58/4 32/59/4
f 32/60/1 26/61/1 30/62/1
f 28/59/3 25/63/3 26/64/3
f 26/65/6 29/66/6 30/67/6
f 37/61/2 35/68/2 33/69/2
f 35/70/5 40/71/5 36/72/5
f 39/73/3 38/74/3 40/75/3
f 34/76/1 40/77/1 38/78/1
f 33/79/4 36/80/4 34/81/4
f 37/82/6 34/27/6 38/71/6
f 13/19/2 15/88/2 11/20/2
f 11/22/6 15/89/6 16/23/6
f 15/25/4 13/31/4 14/26/4
f 10/28/1 12/90/1 16/29/1
f 9/31/3 11/91/3 12/32/3
f 13/33/5 9/92/5 10/34/5
f 19/36/2 23/93/2 21/37/2
f 24/39/6 23/94/6 19/40/6
f 22/42/3 21/95/3 23/43/3
f 24/45/1 20/96/1 18/46/1
f 20/44/4 19/43/4 17/48/4
f 18/41/5 17/40/5 21/50/5
f 27/52/2 31/97/2 29/53/2
f 32/51/5 31/50/5 27/55/5
f 30/57/4 29/98/4 31/58/4
f 32/60/1 28/99/1 26/61/1
f 28/59/3 27/58/3 25/63/3
f 26/65/6 25/100/6 29/66/6
f 37/61/2 39/99/2 35/68/2
f 35/70/5 39/82/5 40/71/5
f 39/73/3 37/101/3 38/74/3
f 34/76/1 36/102/1 40/77/1
f 33/79/4 35/103/4 36/80/4
f 37/82/6 33/25/6 34/27/6
